<svg version="1" xmlns="http://www.w3.org/2000/svg" width="2841.333" height="2841.333" viewBox="0 0 2131.000000 2131.000000"><path d="M1031.5 465.6c-25.5 1.5-41.3 2.8-56.4 4.5-176.5 19.5-341.8 97.9-470.5 223-146.5 142.5-233.2 336.2-241.9 540.8l-.2 5.5-9.5 3.6c-29.1 11.1-50.6 26.7-69.6 50.4l-3 3.9-8-2.6c-13.8-4.6-24.6-6.9-42.7-9.2-10.9-1.4-40-.6-51.7 1.4-44.7 7.8-71.9 32.2-77 69.2-2.2 15.3.2 31.3 6.5 44.5 15.4 32.1 51.7 49.2 102.4 48.2l16.6-.3 4.7 9.6c17.8 36.6 60.1 65.7 112.1 77.3 20.7 4.7 30.9 5.8 56.2 6.1 25.2.4 35.8-.5 55.2-4.4 5.5-1.2 10.8-2.1 11.6-2.1.8 0 3.1 2.6 5.2 5.7 5.4 8.1 16.8 19.1 26.7 25.6 16.8 11.1 33.2 17.9 54.7 22.4 11.6 2.5 14.5 2.7 35.6 2.8 20.1 0 24.4-.3 34.3-2.3 29.7-6 55-18.4 72.9-35.8 6.7-6.5 7.8-7.2 9.2-6 3.5 3 23.2 14.2 33.6 19.2 23.2 10.9 53 20.5 80.7 25.9 42.1 8.2 97.4 10.4 125.8 5 12.5-2.4 21.8-6.4 38.5-16.5 8.3-4.9 15.3-9 15.6-9 .3 0 2.9 3.9 5.8 8.8 13.6 22.9 35.3 41.4 66.6 56.7 31.6 15.4 65 23.8 105.5 26.5 15 1 44.2.7 52.4-.5 1.2-.2 5.3-.6 9.1-1 11.8-1.1 33.3-4.5 47.5-7.5 82.4-17.7 144.2-51.7 163.1-89.8 1.9-3.7 3.5-6.9 3.6-7.1.1-.2 6.4 1.7 14 4.2 25.6 8.5 48.8 13.1 81.3 16.3 9.9 1 45.1 1 56.5.1 68.9-5.8 129.3-33.2 158.4-71.8l5.8-7.6 2.8 1.5c10.2 5.3 33.5 13.7 49.3 17.6 27.7 7 52 9.6 83.7 9.1 12.1-.2 22.9-.6 24-.8 1.1-.3 5.4-.8 9.5-1.2 4.1-.3 14-1.9 22-3.5 38.2-7.6 70-20.7 95.5-39.3 9.4-6.9 23.5-20.6 29.7-29 4.8-6.4 5.3-6.8 8.2-6.3 1.7.4 12.3.9 23.6 1.2 16.3.5 22.8.3 31.8-1 26.8-4 46.2-12.7 60.7-27.5 28.4-28.7 28.1-78.4-.6-107.1-13.9-13.9-34.2-22.9-61-27-9.9-1.5-40.8-1.3-53.4.4-12.9 1.7-28 5.4-40 9.7-4.8 1.7-8.7 3-8.9 2.8-.2-.2-1.8-3.3-3.6-6.9-12-23.9-34-44.5-64-59.9l-9.8-5.1-.6-6.3c-.3-3.4-1.2-14.5-2.1-24.7-8.9-104.6-39.9-209.5-89.3-302.5-49.8-93.8-115.7-174.9-198.2-244-14-11.7-46.2-35.8-63-47.1-116.8-78.9-247.3-124-391-135.4-13.5-1.1-81.1-2.1-92.5-1.4zM1119 538c73.6 5.9 139.5 20.4 205.5 45.2 170.8 64.3 314.1 193.7 395.9 357.4 35 70.2 57.5 141.2 69.1 217.6 3 20 5.8 45.8 5.1 46.5-.3.3-4.5 0-9.3-.6-14.2-1.9-49.6-2.6-63.5-1.2-14.1 1.4-34 4.4-44.4 6.7l-7 1.5-8.5-5.5c-4.6-3.1-8.7-5.7-9.1-5.8-.4-.2-1.4-5.5-2.3-11.8-11.8-86.8-43.6-171.2-92.2-244.8-63.2-95.9-154.7-172.4-259.5-217.3-57-24.4-113.8-38.9-178.8-45.6-20.7-2.1-83.7-2.4-103.5-.5-67.1 6.5-123.4 20.4-180.5 44.5-102.1 43-190.8 114.7-254.3 205.5-55.1 78.8-90.3 169.9-102 264l-2.3 18.4-7.6 3.3c-20.7 9-41 21.4-53.1 32.5l-6.8 6.2-10.2-5c-16.8-8.4-40.1-15.3-56.5-16.8-3.9-.4-7.5-1-8.2-1.4-2.2-1.4 2.8-51.9 8.6-85.9C374.9 960.3 476.1 794.9 627 681.8c92.9-69.6 200.8-115.9 315.3-135.3 30-5 56.7-7.9 93.7-9.9 12-.7 69.4.3 83 1.4zm-16.8 425.6c34 4.1 64.8 13.2 95.5 27.9 46 22.1 83.3 52.8 114.1 93.8 21.5 28.6 38.6 63.1 48.6 98.2 6.5 22.5 6.5 20.9.4 24.9l-5.1 3.5-4.2-5.7c-17.6-23.9-53.5-41.9-97.5-48.8-16.4-2.6-57.1-2.6-72-.1-29.6 5.2-52.7 13.4-72.3 25.9l-7.7 5-8.1-7.6c-27.3-26.2-68.6-40-114.4-38.3-28.4 1-49 6.2-71.9 17.9-17.7 9.1-32.1 21.6-41.4 35.9-2.3 3.5-4.3 6.7-4.4 7.1-.2.3-3.4.9-7.3 1.3-13.9 1.2-17.2 1.6-29.5 3.6-16.8 2.8-36 7.8-51 13.3-6.8 2.5-12.5 4.5-12.6 4.3-.5-.4 4.3-24.9 6.6-33.7 13.6-52.8 41.4-101.5 80.5-140.5C900.9 999 969 967.9 1043.8 962c14.1-1.1 42.9-.3 58.4 1.6zm-88.7 204.4c18.9 3.2 38.8 10.7 51.5 19.3 6.6 4.5 18.5 16.3 22.2 21.9l3.1 4.9 7.6-.6c11-.9 13.3-1.4 16.1-4 7.9-7.3 25.3-16.3 41.1-21.3 21.3-6.8 39.5-9.3 64.8-9.1 31.9.3 56.2 5.6 80.6 17.4 12.4 6 21.8 12.7 28.9 20.6 5.9 6.5 8.7 11.9 12.7 24.6 1.7 5.4 3.3 10 3.5 10.2.1.2 4.4-3.4 9.4-8 16-14.7 29.9-23.9 47.9-31.8 65.5-28.9 152.6-29.5 217.6-1.5 13.7 5.8 23.2 11.2 34.8 19.5l9.8 7.1 12.7-3.1c25.1-5.9 45-8 72.7-7.6 21.5.4 25.2.7 45.5 4 59.9 9.9 107.6 37.7 125.2 73 3.1 6.1 5.1 12.5 7.3 22.7 1 4.3 2 7.8 2.3 7.8.3 0 4.9-2.4 10.1-5.4 25-14.1 49.5-20.1 81.6-20 33.1.2 54.4 6.7 69.5 21.5 18.1 17.7 19.9 48.5 4.2 69.2-17.3 22.8-62.1 32.1-109.8 22.9l-9.1-1.8-3.2 6.3c-19.4 37.3-70.1 65.1-136.6 75-17 2.5-61 2.5-78-.1-37.6-5.5-67.8-15.6-93.6-31.2-3.1-1.9-6.1-3.4-6.6-3.4s-2.3 2.8-3.9 6.2c-21.3 45.2-77 74.6-154.9 81.8-49.4 4.5-112.4-6.4-152.4-26.4-7.3-3.7-13.5-6.6-13.6-6.4-.2.2-.6 4.4-1 9.3-1.3 18.3-6.2 28.3-20.6 42.1-31.3 29.8-96.8 54.7-170.3 64.6-21.8 2.9-64.9 3.2-83 .5-41.3-6.2-73.7-17.6-99.4-34.9-23.2-15.7-37.6-34.2-43.3-55.8-1.2-4.7-2.6-8.9-3-9.4-1-1.2-21.1 8.8-37.2 18.6-17.4 10.5-23.1 13.4-31.9 15.8-11.1 3-24 3.9-49.3 3.5-30-.5-54.1-3.3-80.4-9.1-44.6-10-81.5-26.5-109.2-48.9-4.5-3.6-8.4-6.5-8.8-6.5-.3 0-2.8 3.7-5.5 8.2-17.8 29.8-56.3 47.9-102.1 48-37.7 0-69.9-11.5-91.1-32.7-7-7-8.9-9.6-13-18.4-5.7-11.7-3.3-11.1-22.2-6.2-19.1 4.9-29.7 6.3-53.7 6.8-17.1.4-24.9.2-35-1.1-44.2-5.7-79.8-21-103.6-44.6-13.2-13-21.5-27.5-25-43.4l-1.3-5.8-5.5.6c-38.7 4.6-63.3 2-85.6-9.2-8.7-4.3-19.2-14.3-23.4-22.1-7.8-14.7-8-34.6-.5-49.5 10.6-21 36.5-33 73.9-34.1 28-.8 54.8 4.5 78.2 15.5l8.3 3.9 5.4-9.2c18.6-31.4 49.5-51.9 91.6-60.7 13.6-2.9 39.9-3.6 54.4-1.5 23.8 3.5 44.6 11.3 64.2 24l8.2 5.3 5.8-7.1c41.7-50.2 141.8-73.8 229.6-54.2 28.5 6.4 59.1 19.7 78.6 34.1l10.2 7.6 6.3-4c14-8.9 35.8-18.5 53.5-23.6 21.5-6.3 40.2-9.2 69.8-11.1l10.1-.7 3.2-7.8c9.8-24 37.4-42.8 73.2-49.9 14.8-2.9 13.8-2.8 31.6-3 12.1-.1 19 .4 27.8 1.9z"/></svg>